<mxfile host="Electron" agent="Mozilla/5.0 (Macintosh; Intel Mac OS X 10_15_7) AppleWebKit/537.36 (KHTML, like Gecko) draw.io/26.1.1 Chrome/132.0.6834.210 Electron/34.3.3 Safari/537.36" version="26.1.1">
  <diagram name="Page-1" id="KLkaHieApgXp6CN8Wqc0">
    <mxGraphModel dx="1257" dy="788" grid="1" gridSize="10" guides="1" tooltips="1" connect="1" arrows="1" fold="1" page="1" pageScale="1" pageWidth="1600" pageHeight="900" math="1" shadow="0">
      <root>
        <mxCell id="0" />
        <mxCell id="1" parent="0" />
        <mxCell id="gH2aDhsVP3nrWGN1S9OE-4" value="" style="endArrow=classic;html=1;rounded=0;exitX=0.5;exitY=0;exitDx=0;exitDy=0;entryX=0;entryY=0.75;entryDx=0;entryDy=0;curved=1;" edge="1" parent="1" source="gH2aDhsVP3nrWGN1S9OE-13" target="gH2aDhsVP3nrWGN1S9OE-12">
          <mxGeometry width="50" height="50" relative="1" as="geometry">
            <mxPoint x="800" y="440" as="sourcePoint" />
            <mxPoint x="838.75" y="410" as="targetPoint" />
            <Array as="points">
              <mxPoint x="750" y="390" />
            </Array>
          </mxGeometry>
        </mxCell>
        <mxCell id="gH2aDhsVP3nrWGN1S9OE-5" value="$$VIS$$" style="edgeLabel;html=1;align=center;verticalAlign=middle;resizable=0;points=[];labelBackgroundColor=none;" vertex="1" connectable="0" parent="gH2aDhsVP3nrWGN1S9OE-4">
          <mxGeometry x="0.2045" y="2" relative="1" as="geometry">
            <mxPoint x="-28" y="2" as="offset" />
          </mxGeometry>
        </mxCell>
        <mxCell id="gH2aDhsVP3nrWGN1S9OE-10" value="" style="endArrow=classic;html=1;rounded=0;entryX=0.5;entryY=0;entryDx=0;entryDy=0;exitX=0.994;exitY=0.715;exitDx=0;exitDy=0;curved=1;exitPerimeter=0;" edge="1" parent="1" source="gH2aDhsVP3nrWGN1S9OE-12" target="gH2aDhsVP3nrWGN1S9OE-14">
          <mxGeometry width="50" height="50" relative="1" as="geometry">
            <mxPoint x="940" y="410" as="sourcePoint" />
            <mxPoint x="1015" y="465" as="targetPoint" />
            <Array as="points">
              <mxPoint x="970" y="390" />
            </Array>
          </mxGeometry>
        </mxCell>
        <mxCell id="gH2aDhsVP3nrWGN1S9OE-11" value="$$VIS$$" style="edgeLabel;html=1;align=center;verticalAlign=middle;resizable=0;points=[];labelBackgroundColor=none;" vertex="1" connectable="0" parent="gH2aDhsVP3nrWGN1S9OE-10">
          <mxGeometry x="0.2045" y="2" relative="1" as="geometry">
            <mxPoint x="-2" y="-6" as="offset" />
          </mxGeometry>
        </mxCell>
        <mxCell id="gH2aDhsVP3nrWGN1S9OE-12" value="" style="rounded=1;whiteSpace=wrap;html=1;fillColor=#f5f5f5;fontColor=#333333;strokeColor=#666666;align=left;spacingLeft=10;verticalAlign=middle;labelPosition=center;verticalLabelPosition=middle;" vertex="1" parent="1">
          <mxGeometry x="805" y="330" width="110" height="80" as="geometry" />
        </mxCell>
        <mxCell id="gH2aDhsVP3nrWGN1S9OE-13" value="&lt;div&gt;&lt;br&gt;&lt;/div&gt;" style="rounded=1;whiteSpace=wrap;html=1;fillColor=#f5f5f5;fontColor=#333333;strokeColor=#666666;align=left;spacingLeft=10;" vertex="1" parent="1">
          <mxGeometry x="660" y="440" width="110" height="80" as="geometry" />
        </mxCell>
        <mxCell id="gH2aDhsVP3nrWGN1S9OE-14" value="&lt;div&gt;&lt;br&gt;&lt;/div&gt;" style="rounded=1;whiteSpace=wrap;html=1;fillColor=#f5f5f5;fontColor=#333333;strokeColor=#666666;align=left;spacingLeft=10;" vertex="1" parent="1">
          <mxGeometry x="840" y="430" width="120" height="80" as="geometry" />
        </mxCell>
        <mxCell id="gH2aDhsVP3nrWGN1S9OE-15" value="$$T_2$$" style="text;html=1;align=center;verticalAlign=middle;whiteSpace=wrap;rounded=0;" vertex="1" parent="1">
          <mxGeometry x="830" y="300" width="60" height="30" as="geometry" />
        </mxCell>
        <mxCell id="gH2aDhsVP3nrWGN1S9OE-20" value="$$T_1$$" style="text;html=1;align=center;verticalAlign=middle;whiteSpace=wrap;rounded=0;" vertex="1" parent="1">
          <mxGeometry x="650" y="400" width="60" height="30" as="geometry" />
        </mxCell>
        <mxCell id="gH2aDhsVP3nrWGN1S9OE-21" value="$$T_3$$" style="text;html=1;align=center;verticalAlign=middle;whiteSpace=wrap;rounded=0;" vertex="1" parent="1">
          <mxGeometry x="1000" y="410" width="60" height="30" as="geometry" />
        </mxCell>
      </root>
    </mxGraphModel>
  </diagram>
</mxfile>
